<svg width="43" height="69" viewBox="0 0 43 69" fill="none" xmlns="http://www.w3.org/2000/svg">
<rect width="43" height="69" fill="#E5E5E5"/>
<rect width="1152" height="4725" transform="translate(-127 -2199)" fill="white"/>
<g clip-path="url(#clip0)">
<text fill="#F9BDBD" fill-opacity="0.25" xml:space="preserve" style="white-space: pre" font-family="Nunito" font-size="96" font-weight="600" letter-spacing="0em"><tspan x="-9.78125" y="68.584">1</tspan></text>
<path d="M86.1938 -25.7097H39.7421V5.2579H86.1938V-25.7097Z" fill="#F9BDBD"/>
<path d="M146.193 -35.3873H37.8066C34.6054 -35.3873 32 -32.7819 32 -29.5807V42.032C32 45.2332 34.6054 47.8386 37.8066 47.8386H70.7096V57.5162H61.032V61.3873H122.968V57.5162H113.29V47.8386H146.193C149.395 47.8386 152 45.2332 152 42.032V-29.5807C152 -32.7819 149.395 -35.3873 146.193 -35.3873ZM37.8066 -31.5162H146.194C147.262 -31.5162 148.129 -30.6472 148.129 -29.5807V30.4193H35.871V-29.5807C35.871 -30.6472 36.738 -31.5162 37.8066 -31.5162ZM109.419 57.5162H74.5807V47.8386H109.419V57.5162ZM146.193 43.9676H37.8066C36.738 43.9676 35.871 43.0986 35.871 42.032V34.2903H148.129V42.0324C148.129 43.0986 147.262 43.9676 146.193 43.9676Z" fill="#333333"/>
<path d="M86.1938 11.0645H39.7421V14.9355H86.1938V11.0645Z" fill="#333333"/>
<path d="M86.1938 20.7421H39.7421V24.6131H86.1938V20.7421Z" fill="#333333"/>
</g>
<defs>
<clipPath id="clip0">
<rect width="1152" height="4725" fill="white" transform="translate(-127 -2199)"/>
</clipPath>
</defs>
</svg>
