<svg width="398" height="398" viewBox="0 0 398 398" fill="none" xmlns="http://www.w3.org/2000/svg">
<g filter="url(#filter0_d)">
<path d="M9 31.738H109.905C153.535 31.738 188.905 67.1075 188.905 110.738V188.905H88C44.3695 188.905 9 153.535 9 109.905V31.738Z" stroke="#894242" stroke-opacity="0.2" stroke-width="2"/>
</g>
<g filter="url(#filter1_d)">
<path d="M209.095 209.095H310C353.63 209.095 389 244.465 389 288.095V366.262H288.095C244.465 366.262 209.095 330.892 209.095 287.262V209.095Z" stroke="#894242" stroke-opacity="0.2" stroke-width="2"/>
</g>
<g filter="url(#filter2_d)">
<path d="M288.095 9H366.262V109.905C366.262 153.535 330.892 188.905 287.262 188.905H209.095V88C209.095 44.3695 244.465 9 288.095 9Z" stroke="#894242" stroke-opacity="0.2" stroke-width="2"/>
</g>
<g filter="url(#filter3_d)">
<path d="M110.738 209.095H188.905V310C188.905 353.63 153.535 389 109.905 389H31.738V288.095C31.738 244.465 67.1075 209.095 110.738 209.095Z" stroke="#894242" stroke-opacity="0.2" stroke-width="2"/>
</g>
<defs>
<filter id="filter0_d" x="0" y="22.738" width="197.905" height="175.167" filterUnits="userSpaceOnUse" color-interpolation-filters="sRGB">
<feFlood flood-opacity="0" result="BackgroundImageFix"/>
<feColorMatrix in="SourceAlpha" type="matrix" values="0 0 0 0 0 0 0 0 0 0 0 0 0 0 0 0 0 0 127 0"/>
<feOffset/>
<feGaussianBlur stdDeviation="4"/>
<feColorMatrix type="matrix" values="0 0 0 0 0 0 0 0 0 0 0 0 0 0 0 0 0 0 0.15 0"/>
<feBlend mode="normal" in2="BackgroundImageFix" result="effect1_dropShadow"/>
<feBlend mode="normal" in="SourceGraphic" in2="effect1_dropShadow" result="shape"/>
</filter>
<filter id="filter1_d" x="200.095" y="200.095" width="197.905" height="175.167" filterUnits="userSpaceOnUse" color-interpolation-filters="sRGB">
<feFlood flood-opacity="0" result="BackgroundImageFix"/>
<feColorMatrix in="SourceAlpha" type="matrix" values="0 0 0 0 0 0 0 0 0 0 0 0 0 0 0 0 0 0 127 0"/>
<feOffset/>
<feGaussianBlur stdDeviation="4"/>
<feColorMatrix type="matrix" values="0 0 0 0 0 0 0 0 0 0 0 0 0 0 0 0 0 0 0.15 0"/>
<feBlend mode="normal" in2="BackgroundImageFix" result="effect1_dropShadow"/>
<feBlend mode="normal" in="SourceGraphic" in2="effect1_dropShadow" result="shape"/>
</filter>
<filter id="filter2_d" x="200.095" y="0" width="175.167" height="197.905" filterUnits="userSpaceOnUse" color-interpolation-filters="sRGB">
<feFlood flood-opacity="0" result="BackgroundImageFix"/>
<feColorMatrix in="SourceAlpha" type="matrix" values="0 0 0 0 0 0 0 0 0 0 0 0 0 0 0 0 0 0 127 0"/>
<feOffset/>
<feGaussianBlur stdDeviation="4"/>
<feColorMatrix type="matrix" values="0 0 0 0 0 0 0 0 0 0 0 0 0 0 0 0 0 0 0.15 0"/>
<feBlend mode="normal" in2="BackgroundImageFix" result="effect1_dropShadow"/>
<feBlend mode="normal" in="SourceGraphic" in2="effect1_dropShadow" result="shape"/>
</filter>
<filter id="filter3_d" x="22.738" y="200.095" width="175.167" height="197.905" filterUnits="userSpaceOnUse" color-interpolation-filters="sRGB">
<feFlood flood-opacity="0" result="BackgroundImageFix"/>
<feColorMatrix in="SourceAlpha" type="matrix" values="0 0 0 0 0 0 0 0 0 0 0 0 0 0 0 0 0 0 127 0"/>
<feOffset/>
<feGaussianBlur stdDeviation="4"/>
<feColorMatrix type="matrix" values="0 0 0 0 0 0 0 0 0 0 0 0 0 0 0 0 0 0 0.15 0"/>
<feBlend mode="normal" in2="BackgroundImageFix" result="effect1_dropShadow"/>
<feBlend mode="normal" in="SourceGraphic" in2="effect1_dropShadow" result="shape"/>
</filter>
</defs>
</svg>
